<svg width="400" height="400" viewBox="0 0 400 400" fill="none" xmlns="http://www.w3.org/2000/svg">
<rect x="288.315" y="50" width="290" height="40" rx="20" transform="rotate(120 288.315 50)" fill="#29384E"/>
<rect x="217.43" y="47.181" width="260" height="40" rx="20" transform="rotate(105 217.43 47.181)" fill="#364B6A"/>
<rect x="155.995" y="63.8268" width="230" height="40" rx="20" transform="rotate(90 155.995 63.8268)" fill="#445E84"/>
<rect x="108.726" y="94.7837" width="200" height="40" rx="20" transform="rotate(75 108.726 94.7837)" fill="#4F71A3"/>
<rect x="78.3154" y="133.923" width="170" height="40" rx="20" transform="rotate(60 78.3154 133.923)" fill="#5584C9"/>
<rect x="65.2843" y="174.832" width="140" height="40" rx="20" transform="rotate(45 65.2843 174.832)" fill="#0D6EFD"/>
<rect x="362.269" y="75.8369" width="320" height="40" rx="20" transform="rotate(135 362.269 75.8369)" fill="#0D6EFD"/>
<path d="M88.8909 350.624C88.8909 348.944 90.4269 348.08 92.3949 348.08C94.5549 348.08 96.0909 348.992 96.9069 350.816L101.275 348.368C99.5949 345.248 96.3789 343.376 92.3949 343.376C89.8989 343.376 87.7869 344.048 86.1069 345.392C84.4269 346.736 83.6109 348.512 83.6109 350.72C83.5149 355.76 88.3629 357.2 91.9629 358.112C94.5069 358.736 96.5229 359.648 96.5229 361.184C96.5229 362.96 95.1789 363.872 92.4429 363.872C89.7069 363.872 87.9309 362.72 87.1149 360.416L82.6509 363.008C84.1869 366.512 87.6909 368.624 92.4429 368.624C95.1309 368.624 97.3389 367.952 99.1149 366.656C100.891 365.36 101.803 363.536 101.803 361.232C101.899 356.096 97.0989 354.56 93.4029 353.744C90.9069 353.024 88.8909 352.208 88.8909 350.624ZM118.814 344H112.862V337.28L107.678 338.816V344H103.262V348.992H107.678V360.512C107.678 366.8 110.894 368.96 118.814 368V363.344C114.878 363.536 112.862 363.584 112.862 360.512V348.992H118.814V344ZM139.927 356.864C139.927 361.52 137.479 363.776 133.831 363.776C130.519 363.776 128.455 361.808 128.455 358.208V344H123.271V358.736C123.271 364.88 126.967 368.624 132.487 368.624C135.895 368.624 138.343 367.376 139.927 364.928V368H145.111V344H139.927V356.864ZM169.268 355.904V350.912H151.508V355.904H169.268ZM194.649 347.408C192.681 344.72 189.897 343.376 186.249 343.376C182.937 343.376 180.153 344.576 177.801 347.024C175.449 349.472 174.297 352.448 174.297 356C174.297 359.504 175.449 362.528 177.801 364.976C180.153 367.424 182.937 368.624 186.249 368.624C189.897 368.624 192.681 367.28 194.649 364.544V368H199.833V334.4H194.649V347.408ZM181.641 361.52C180.201 360.032 179.481 358.208 179.481 356C179.481 353.792 180.201 351.968 181.641 350.528C183.081 349.04 184.905 348.32 187.065 348.32C189.225 348.32 191.049 349.04 192.489 350.528C193.929 351.968 194.649 353.792 194.649 356C194.649 358.208 193.929 360.032 192.489 361.52C191.049 362.96 189.225 363.68 187.065 363.68C184.905 363.68 183.081 362.96 181.641 361.52ZM217.204 368.624C220.756 368.624 223.732 367.424 226.18 364.976C228.628 362.528 229.876 359.552 229.876 356C229.876 352.448 228.628 349.472 226.18 347.024C223.732 344.576 220.756 343.376 217.204 343.376C213.7 343.376 210.676 344.576 208.228 347.024C205.78 349.472 204.532 352.448 204.532 356C204.532 359.552 205.78 362.528 208.228 364.976C210.676 367.424 213.7 368.624 217.204 368.624ZM211.876 361.424C210.436 359.984 209.716 358.16 209.716 356C209.716 353.84 210.436 352.016 211.876 350.576C213.316 349.136 215.092 348.416 217.204 348.416C219.316 348.416 221.092 349.136 222.532 350.576C223.972 352.016 224.692 353.84 224.692 356C224.692 358.16 223.972 359.984 222.532 361.424C221.092 362.864 219.316 363.584 217.204 363.584C215.092 363.584 213.316 362.864 211.876 361.424ZM252.659 355.904V350.912H234.899V355.904H252.659ZM264.216 368V332.96H259.032V368H264.216ZM275.131 339.44C276.475 338.096 276.475 336.08 275.179 334.784C273.883 333.44 271.771 333.44 270.475 334.784C269.179 336.08 269.179 338.096 270.475 339.44C271.819 340.736 273.835 340.736 275.131 339.44ZM275.419 368V344H270.235V368H275.419ZM285.953 350.624C285.953 348.944 287.489 348.08 289.457 348.08C291.617 348.08 293.153 348.992 293.969 350.816L298.337 348.368C296.657 345.248 293.441 343.376 289.457 343.376C286.961 343.376 284.849 344.048 283.169 345.392C281.489 346.736 280.673 348.512 280.673 350.72C280.577 355.76 285.425 357.2 289.025 358.112C291.569 358.736 293.585 359.648 293.585 361.184C293.585 362.96 292.241 363.872 289.505 363.872C286.769 363.872 284.993 362.72 284.177 360.416L279.713 363.008C281.249 366.512 284.753 368.624 289.505 368.624C292.193 368.624 294.401 367.952 296.177 366.656C297.953 365.36 298.865 363.536 298.865 361.232C298.961 356.096 294.161 354.56 290.465 353.744C287.969 353.024 285.953 352.208 285.953 350.624ZM315.877 344H309.925V337.28L304.741 338.816V344H300.325V348.992H304.741V360.512C304.741 366.8 307.957 368.96 315.877 368V363.344C311.941 363.536 309.925 363.584 309.925 360.512V348.992H315.877V344Z" fill="#A7CBFF"/>
</svg>
